<?xml version="1.0" encoding="UTF-8"?>
<svg width="98px" height="150px" viewBox="0 0 98 150" version="1.1" xmlns="http://www.w3.org/2000/svg" xmlns:xlink="http://www.w3.org/1999/xlink">
    <!-- Generator: Sketch 48.2 (47327) - http://www.bohemiancoding.com/sketch -->
    <title>adressen</title>
    <desc>Created with Sketch.</desc>
    <defs></defs>
    <g id="Artboard" stroke="none" stroke-width="1" fill="none" fill-rule="evenodd" transform="translate(-3246.000000, -2068.000000)">
        <path d="M3295,2136.195 C3284.261,2136.195 3275.524,2127.459 3275.524,2116.719 C3275.524,2105.98 3284.261,2097.244 3295,2097.244 C3305.739,2097.244 3314.476,2105.98 3314.476,2116.719 C3314.476,2127.459 3305.739,2136.195 3295,2136.195 M3295,2068.03 C3268.152,2068.03 3246.311,2089.872 3246.311,2116.719 C3246.311,2144.605 3289.125,2209.193 3290.948,2211.929 L3295.013,2218.03 L3299.06,2211.918 C3300.882,2209.166 3343.689,2144.2 3343.689,2116.719 C3343.689,2089.872 3321.848,2068.03 3295,2068.03" id="adressen" fill="#1D1D1B"></path>
    </g>
</svg>