<?xml version="1.0" encoding="UTF-8"?>
<svg width="150px" height="150px" viewBox="0 0 150 150" version="1.1" xmlns="http://www.w3.org/2000/svg" xmlns:xlink="http://www.w3.org/1999/xlink">
    <!-- Generator: Sketch 48.2 (47327) - http://www.bohemiancoding.com/sketch -->
    <title>lupe</title>
    <desc>Created with Sketch.</desc>
    <defs></defs>
    <g id="Artboard" stroke="none" stroke-width="1" fill="none" fill-rule="evenodd" transform="translate(-3220.000000, -868.000000)">
        <path d="M3285,968.3918 C3265.701,968.3918 3250,952.6908 3250,933.3918 C3250,914.0928 3265.701,898.3918 3285,898.3918 C3304.299,898.3918 3320,914.0928 3320,933.3918 C3320,952.6908 3304.299,968.3918 3285,968.3918 Z M3370,980.1168 L3344.199,960.1798 C3347.913,952.0048 3350,942.9398 3350,933.3918 C3350,897.5508 3320.841,868.3918 3285,868.3918 C3249.158,868.3918 3220,897.5508 3220,933.3918 C3220,969.2328 3249.158,998.3918 3285,998.3918 C3300.462,998.3918 3314.672,992.9558 3325.842,983.9078 L3370,1018.0298 L3370,980.1168 Z" id="lupe" fill="#1D1D1B"></path>
    </g>
</svg>