<?xml version="1.0" encoding="UTF-8"?>
<svg width="151px" height="146px" viewBox="0 0 151 146" version="1.1" xmlns="http://www.w3.org/2000/svg" xmlns:xlink="http://www.w3.org/1999/xlink">
    <!-- Generator: Sketch 48.2 (47327) - http://www.bohemiancoding.com/sketch -->
    <title>personendaten</title>
    <desc>Created with Sketch.</desc>
    <defs></defs>
    <g id="Artboard" stroke="none" stroke-width="1" fill="none" fill-rule="evenodd" transform="translate(-5379.000000, -867.000000)">
        <g id="personendaten" transform="translate(5379.000000, 867.030000)" fill="#CC0033">
            <path d="M75.6914,70.9365 C95.0214,70.9365 110.6914,55.2665 110.6914,35.9365 C110.6914,16.6065 95.0214,0.9365 75.6914,0.9365 C56.3614,0.9365 40.6914,16.6065 40.6914,35.9365 C40.6914,55.2665 56.3614,70.9365 75.6914,70.9365" id="Fill-24"></path>
            <path d="M75.6914,90.9365 C48.5014,90.9365 22.9294,97.9825 0.6914,110.3315 L0.6914,145.9995 C21.5964,130.2705 47.5744,120.9365 75.6914,120.9365 C103.8084,120.9365 129.7854,130.2705 150.6914,145.9995 L150.6914,110.3315 C128.4524,97.9825 102.8804,90.9365 75.6914,90.9365" id="Fill-26"></path>
        </g>
    </g>
</svg>